<svg width="116" height="131" viewBox="0 0 116 131" fill="none" xmlns="http://www.w3.org/2000/svg">
<path d="M6.77539 64.3239C6.77539 65.9808 5.43224 67.3239 3.77539 67.3239C2.11853 67.3239 0.775385 65.9808 0.775385 64.3239C0.775385 62.6671 2.11853 61.3239 3.77539 61.3239C5.43224 61.3239 6.77539 62.6671 6.77539 64.3239Z" fill="white"/>
<path d="M115.775 64.3239C115.775 65.9808 114.432 67.3239 112.775 67.3239C111.119 67.3239 109.775 65.9808 109.775 64.3239C109.775 62.6671 111.119 61.3239 112.775 61.3239C114.432 61.3239 115.775 62.6671 115.775 64.3239Z" fill="white"/>
<path d="M104.587 104.288C103.583 103.557 102.852 102.745 102.397 101.851C101.944 100.96 101.757 100.053 101.833 99.1297C101.911 98.2118 102.245 97.347 102.835 96.5353C103.428 95.7205 104.15 95.1333 105.002 94.7739C105.854 94.4197 106.776 94.3218 107.766 94.4801C108.756 94.6383 109.752 95.0818 110.754 95.8104C111.759 96.5413 112.487 97.3523 112.94 98.2435C113.395 99.137 113.584 100.043 113.507 100.961C113.43 101.884 113.095 102.753 112.503 103.568C111.912 104.379 111.191 104.962 110.338 105.316C109.486 105.676 108.565 105.776 107.575 105.618C106.588 105.462 105.592 105.019 104.587 104.288ZM105.61 102.882C106.376 103.439 107.111 103.784 107.815 103.917C108.52 104.055 109.164 104.008 109.745 103.775C110.327 103.547 110.815 103.164 111.207 102.625C111.601 102.083 111.817 101.5 111.854 100.876C111.894 100.254 111.741 99.6271 111.395 98.9957C111.049 98.3696 110.494 97.7781 109.728 97.221C108.962 96.664 108.227 96.3163 107.521 96.1781C106.817 96.0452 106.174 96.0925 105.591 96.32C105.012 96.5497 104.525 96.9356 104.131 97.4778C103.739 98.0169 103.523 98.5974 103.482 99.2193C103.443 99.8464 103.596 100.473 103.942 101.099C104.288 101.731 104.844 102.325 105.61 102.882Z" fill="white"/>
<path d="M95.6077 109.637L98.9617 113.489L97.6761 114.608L91.9455 108.026L93.2054 106.929L94.1978 108.069L94.2664 108.009C94.1119 107.526 94.0998 107.022 94.2301 106.497C94.36 105.977 94.6721 105.502 95.1663 105.071C95.5891 104.703 96.0442 104.47 96.5316 104.372C97.0186 104.28 97.5153 104.337 98.0219 104.544C98.5256 104.753 99.0137 105.129 99.4863 105.672L103.131 109.859L101.85 110.974L98.3393 106.942C97.9488 106.493 97.5136 106.245 97.0338 106.195C96.5539 106.146 96.1154 106.294 95.7183 106.64C95.4783 106.849 95.292 107.117 95.1594 107.443C95.0238 107.772 94.9832 108.126 95.0375 108.506C95.089 108.888 95.279 109.265 95.6077 109.637Z" fill="white"/>
<path d="M88.6075 110.248L93.1015 117.729L91.6939 118.575L90.98 117.387L90.9021 117.433C91.0076 117.918 90.9575 118.379 90.7518 118.816C90.5448 119.259 90.2221 119.612 89.7838 119.875C89.6928 119.93 89.5837 119.991 89.4565 120.058C89.3259 120.128 89.222 120.179 89.1447 120.212L88.3079 118.819C88.3761 118.801 88.4908 118.756 88.6518 118.686C88.8148 118.619 88.971 118.54 89.1204 118.451C89.4646 118.244 89.7276 117.987 89.9093 117.679C90.0897 117.376 90.1808 117.049 90.1826 116.699C90.1863 116.352 90.0906 116.016 89.8956 115.692L87.1512 111.123L88.6075 110.248Z" fill="white"/>
<path d="M72.5098 126.088C72.7032 126.593 73.0497 126.934 73.5491 127.11C74.0494 127.29 74.6223 127.296 75.2677 127.129C75.7297 127.009 76.1105 126.833 76.4099 126.599C76.7102 126.368 76.9212 126.102 77.0427 125.801C77.1615 125.504 77.1796 125.196 77.0971 124.877C77.0278 124.609 76.9057 124.395 76.7307 124.232C76.552 124.071 76.343 123.951 76.1034 123.872C75.8612 123.798 75.6095 123.748 75.3484 123.722C75.0882 123.699 74.841 123.689 74.6067 123.691L73.4326 123.689C73.0504 123.694 72.651 123.67 72.2344 123.618C71.8178 123.565 71.4163 123.458 71.0301 123.296C70.6438 123.133 70.3046 122.896 70.0126 122.585C69.717 122.274 69.5037 121.865 69.3727 121.359C69.2076 120.721 69.226 120.112 69.4279 119.532C69.6261 118.952 69.9999 118.439 70.5493 117.991C71.095 117.545 71.8079 117.208 72.688 116.98C73.5314 116.762 74.2958 116.707 74.9812 116.815C75.6665 116.923 76.247 117.178 76.7225 117.579C77.199 117.984 77.5434 118.521 77.7556 119.19L76.0504 119.631C75.9121 119.233 75.6923 118.928 75.391 118.716C75.0871 118.509 74.7365 118.387 74.3393 118.348C73.9393 118.315 73.5212 118.355 73.0848 118.468C72.6044 118.592 72.1967 118.778 71.8615 119.025C71.5237 119.277 71.2817 119.566 71.1356 119.894C70.9904 120.225 70.9653 120.574 71.0602 120.94C71.1465 121.274 71.3126 121.522 71.5583 121.686C71.8004 121.85 72.1008 121.96 72.4596 122.016C72.8147 122.073 73.2077 122.102 73.6386 122.104L75.0637 122.123C76.0293 122.135 76.8379 122.311 77.4893 122.651C78.1371 122.992 78.5625 123.555 78.7656 124.34C78.9336 124.989 78.9042 125.601 78.6775 126.176C78.4507 126.751 78.0713 127.25 77.5392 127.674C77.008 128.101 76.3647 128.412 75.6093 128.608C74.8465 128.805 74.139 128.845 73.4866 128.728C72.8306 128.613 72.2732 128.364 71.8144 127.982C71.3565 127.603 71.0419 127.113 70.8706 126.512L72.5098 126.088Z" fill="white"/>
<path d="M61.5494 118.63C62.3668 118.595 63.0881 118.752 63.7134 119.101C64.3386 119.45 64.8339 119.954 65.1993 120.613C65.5648 121.272 65.7666 122.052 65.8049 122.953C65.8433 123.858 65.7085 124.656 65.4004 125.347C65.0924 126.039 64.6417 126.585 64.0483 126.986C63.4549 127.386 62.7495 127.604 61.932 127.639C61.1146 127.673 60.3933 127.516 59.768 127.168C59.1428 126.819 58.6474 126.313 58.2818 125.65C57.9162 124.987 57.7142 124.203 57.6758 123.298C57.6376 122.398 57.7725 121.603 58.0807 120.915C58.3889 120.228 58.8397 119.683 59.4331 119.283C60.0265 118.882 60.7319 118.665 61.5494 118.63ZM61.6042 120.055C61.0744 120.077 60.6413 120.236 60.3051 120.531C59.9688 120.826 59.7273 121.209 59.5805 121.682C59.43 122.155 59.3666 122.671 59.3904 123.231C59.4141 123.788 59.5209 124.295 59.711 124.753C59.8974 125.215 60.1708 125.581 60.531 125.85C60.8912 126.119 61.3363 126.242 61.8661 126.22C62.3997 126.197 62.8364 126.036 63.1763 125.738C63.5124 125.439 63.7557 125.051 63.9061 124.575C64.0528 124.102 64.1144 123.588 64.0907 123.032C64.0669 122.472 63.9619 121.962 63.7756 121.504C63.5855 121.046 63.3105 120.684 62.9504 120.419C62.5866 120.153 62.1378 120.032 61.6042 120.055Z" fill="white"/>
<path d="M51.0401 129.98L52.3382 118.417L54.0265 118.606L52.7284 130.17L51.0401 129.98Z" fill="white"/>
<path d="M42.3776 119.99L41.0603 124.925L39.4134 124.486L41.6641 116.053L43.278 116.484L42.8883 117.945L42.9761 117.968C43.2902 117.57 43.7014 117.278 44.2097 117.092C44.7134 116.909 45.2818 116.902 45.9149 117.071C46.4566 117.215 46.9042 117.462 47.2579 117.811C47.607 118.163 47.8375 118.607 47.9494 119.143C48.0576 119.677 48.0189 120.292 47.8333 120.988L46.4016 126.351L44.7603 125.913L46.1391 120.747C46.2925 120.172 46.2554 119.672 46.0279 119.247C45.8003 118.822 45.4322 118.541 44.9235 118.405C44.6161 118.323 44.29 118.319 43.9452 118.391C43.5967 118.463 43.2803 118.627 42.996 118.885C42.708 119.141 42.5019 119.51 42.3776 119.99Z" fill="white"/>
<path d="M30.981 120.896L31.5494 119.656L35.8825 121.643L35.3141 122.883L30.981 120.896ZM33.2805 124.25L31.7362 123.542L35.1776 116.038C35.3149 115.738 35.3736 115.492 35.3535 115.3C35.3319 115.111 35.2632 114.956 35.1473 114.836C35.0263 114.718 34.8815 114.621 34.7128 114.543C34.5888 114.487 34.4764 114.445 34.3756 114.42C34.2747 114.395 34.1961 114.375 34.1397 114.362L34.4458 112.958C34.5511 112.965 34.6943 112.989 34.8754 113.03C35.058 113.068 35.2741 113.142 35.5236 113.252C35.933 113.432 36.2786 113.678 36.5603 113.99C36.842 114.303 37.0187 114.667 37.0904 115.084C37.162 115.5 37.0881 115.947 36.8686 116.426L33.2805 124.25Z" fill="white"/>
<path d="M31.7926 111.345L27.2436 118.793L25.7938 117.907L30.3427 110.459L31.7926 111.345ZM25.8095 119.495C26.0617 119.649 26.2269 119.865 26.3053 120.144C26.3784 120.424 26.3429 120.682 26.1988 120.918C26.0527 121.157 25.8394 121.306 25.559 121.366C25.2733 121.427 25.0044 121.38 24.7522 121.226C24.5001 121.072 24.3374 120.855 24.2643 120.575C24.1859 120.296 24.2198 120.038 24.3659 119.798C24.51 119.562 24.7249 119.414 25.0106 119.353C25.2911 119.294 25.5574 119.341 25.8095 119.495Z" fill="white"/>
<path d="M24.5842 105.998C25.211 106.524 25.6374 107.127 25.8635 107.806C26.0896 108.485 26.1151 109.191 25.94 109.924C25.7648 110.658 25.3875 111.37 24.808 112.06C24.226 112.754 23.588 113.252 22.8939 113.554C22.1999 113.857 21.4987 113.956 20.7905 113.851C20.0823 113.747 19.4148 113.431 18.788 112.905C18.1613 112.379 17.7349 111.777 17.5087 111.098C17.2826 110.418 17.2584 109.711 17.436 108.974C17.6136 108.238 17.9933 107.524 18.5753 106.83C19.1548 106.14 19.7903 105.644 20.482 105.345C21.1736 105.045 21.8736 104.947 22.5818 105.052C23.29 105.157 23.9575 105.472 24.5842 105.998ZM23.6632 107.087C23.2569 106.746 22.8302 106.571 22.3831 106.562C21.936 106.552 21.4988 106.673 21.0717 106.922C20.6416 107.17 20.2464 107.508 19.886 107.937C19.5281 108.364 19.2647 108.81 19.0958 109.277C18.9215 109.744 18.8766 110.198 18.9609 110.64C19.0453 111.081 19.2905 111.473 19.6968 111.814C20.1059 112.157 20.5367 112.333 20.9892 112.342C21.4387 112.348 21.8798 112.226 22.3122 111.976C22.7394 111.726 23.132 111.388 23.4899 110.962C23.8502 110.532 24.1163 110.085 24.2881 109.621C24.4571 109.155 24.4981 108.702 24.4114 108.264C24.3217 107.822 24.0723 107.43 23.6632 107.087Z" fill="white"/>
<path d="M14.0245 103.034L18.0893 99.8206L19.1429 101.153L12.297 106.566L11.2856 105.287L12.3999 104.406L12.3329 104.321C11.8459 104.45 11.3597 104.434 10.8744 104.272C10.3867 104.107 9.93959 103.768 9.53316 103.254C9.16432 102.787 8.93935 102.301 8.85823 101.795C8.77415 101.292 8.84741 100.792 9.078 100.296C9.3086 99.8 9.70617 99.3287 10.2707 98.8823L14.6252 95.4394L15.6789 96.7721L11.4848 100.088C10.9886 100.48 10.7031 100.916 10.6282 101.396C10.5503 101.877 10.6899 102.344 11.047 102.796C11.2913 103.105 11.5755 103.327 11.8995 103.462C12.2211 103.594 12.5664 103.627 12.9353 103.562C13.2989 103.497 13.662 103.321 14.0245 103.034Z" fill="white"/>
<path d="M3.85214 89.6174L4.80287 90.8589C4.65763 91.0067 4.53823 91.1838 4.44467 91.3902C4.34937 91.5931 4.30531 91.825 4.3125 92.0858C4.31969 92.3466 4.40434 92.6334 4.56645 92.9462C4.78784 93.3733 5.06846 93.6801 5.40831 93.8665C5.74481 94.0548 6.06271 94.0713 6.36201 93.9162C6.62096 93.7819 6.77978 93.578 6.83847 93.3044C6.89717 93.0308 6.86627 92.6543 6.74578 92.1749L6.39026 90.7976C6.18549 89.9993 6.16397 89.3363 6.3257 88.8088C6.48743 88.2812 6.84237 87.8754 7.39053 87.5912C7.85462 87.3507 8.33799 87.2708 8.84064 87.3516C9.33819 87.4307 9.81329 87.6559 10.266 88.0271C10.7169 88.3949 11.1045 88.8916 11.4287 89.5171C11.8784 90.3848 12.0604 91.1885 11.9746 91.9284C11.8855 92.6701 11.5301 93.2809 10.9086 93.761L9.93097 92.4182C10.2639 92.1304 10.4547 91.7947 10.5033 91.4111C10.5486 91.0293 10.4536 90.6114 10.2182 90.1574C9.96198 89.663 9.65459 89.321 9.29605 89.1314C8.93415 88.9436 8.60355 88.9272 8.30424 89.0824C8.06211 89.2079 7.90572 89.4041 7.83507 89.6711C7.76267 89.9348 7.78031 90.2734 7.88799 90.6869L8.2803 92.1475C8.4903 92.9559 8.50515 93.6266 8.32486 94.1595C8.14283 94.689 7.77606 95.0967 7.22453 95.3826C6.76718 95.6197 6.30075 95.6993 5.82524 95.6216C5.34974 95.5438 4.89935 95.3292 4.47408 94.978C4.04545 94.6284 3.68034 94.1628 3.37877 93.581C2.94472 92.7436 2.78466 91.9904 2.89858 91.3212C3.00914 90.6538 3.32699 90.0858 3.85214 89.6174Z" fill="white"/>
<path d="M0.245972 35.6826L1.26664 33.9692L7.36687 34.065L7.43084 33.9576L4.44205 28.6388L5.46272 26.9255L9.37452 34.1697L13.2991 36.5077L12.4035 38.0111L8.47889 35.6732L0.245972 35.6826Z" fill="white"/>
<path d="M19.6786 28.3918C19.1236 28.993 18.5015 29.3905 17.8123 29.5843C17.1231 29.778 16.4165 29.7701 15.6924 29.5605C14.9683 29.3509 14.275 28.9403 13.6126 28.3288C12.9474 27.7148 12.48 27.054 12.2104 26.3463C11.9409 25.6387 11.8752 24.9337 12.0133 24.2312C12.1514 23.5287 12.4979 22.8769 13.0529 22.2757C13.6078 21.6745 14.2299 21.277 14.9191 21.0833C15.6083 20.8895 16.3164 20.8987 17.0432 21.1109C17.7701 21.3231 18.4662 21.7362 19.1314 22.3503C19.7938 22.9617 20.2584 23.62 20.5252 24.3251C20.7919 25.0301 20.8563 25.7339 20.7182 26.4363C20.5801 27.1388 20.2335 27.7906 19.6786 28.3918ZM18.6345 27.4203C18.9942 27.0307 19.1893 26.6127 19.2197 26.1666C19.2501 25.7204 19.1506 25.278 18.9213 24.8395C18.6946 24.3983 18.3753 23.9875 17.9633 23.6073C17.5542 23.2296 17.1206 22.9453 16.6627 22.7546C16.2045 22.5585 15.7528 22.4921 15.3077 22.5554C14.8626 22.6188 14.4602 22.8453 14.1005 23.235C13.7382 23.6274 13.542 24.0494 13.5118 24.501C13.4842 24.9498 13.5851 25.3961 13.8146 25.8399C14.0439 26.2784 14.3631 26.6865 14.7723 27.0641C15.1842 27.4444 15.6179 27.7313 16.0733 27.9249C16.5313 28.1156 16.9814 28.178 17.4237 28.1121C17.8687 28.0434 18.2722 27.8128 18.6345 27.4203Z" fill="white"/>
<path d="M27.0667 17.0237L24.0771 12.882L25.4592 11.8843L30.5672 18.9606L29.2127 19.9383L28.3281 18.7129L28.2544 18.7661C28.3643 19.2614 28.3305 19.7646 28.153 20.2758C27.9763 20.7818 27.6223 21.2265 27.0909 21.6101C26.6364 21.9382 26.162 22.1288 25.6677 22.1819C25.1744 22.2297 24.6849 22.1276 24.1992 21.8755C23.7167 21.6212 23.2648 21.2023 22.8436 20.6187L19.5945 16.1177L20.972 15.1234L24.1013 19.4585C24.4494 19.9407 24.8601 20.2282 25.3335 20.321C25.8069 20.4137 26.257 20.306 26.6839 19.9978C26.9419 19.8116 27.1518 19.562 27.3136 19.249C27.4785 18.9338 27.5512 18.5847 27.5317 18.2017C27.5152 17.8164 27.3602 17.4238 27.0667 17.0237Z" fill="white"/>
<path d="M34.0667 17.0252L30.282 9.16127L31.7616 8.44917L32.3628 9.69839L32.4448 9.65897C32.3844 9.16674 32.4768 8.7124 32.722 8.29594C32.9689 7.87443 33.3228 7.55279 33.7836 7.33103C33.8791 7.28504 33.9934 7.23424 34.1264 7.17864C34.2628 7.12141 34.371 7.07984 34.451 7.05394L35.1557 8.51818C35.0861 8.53069 34.9678 8.56448 34.801 8.61956C34.6325 8.67123 34.4697 8.73485 34.3127 8.81041C33.9509 8.98454 33.6653 9.21657 33.4559 9.5065C33.2483 9.79138 33.1275 10.1081 33.0935 10.4565C33.0578 10.8016 33.122 11.1448 33.2863 11.4861L35.5975 16.2884L34.0667 17.0252Z" fill="white"/>
<path d="M46.2179 0.488692L48.6593 11.866L46.9427 12.2344L44.5013 0.857055L46.2179 0.488692Z" fill="white"/>
<path d="M54.3387 5.81579L54.5985 10.9911L52.9018 11.0763L52.4641 2.35998L54.0928 2.27821L54.164 3.69688L54.2718 3.69146C54.4492 3.21986 54.7445 2.83335 55.158 2.53193C55.5752 2.23033 56.111 2.0631 56.7655 2.03024C57.3595 2.00042 57.8859 2.09915 58.3449 2.32642C58.8036 2.54991 59.1682 2.89949 59.4386 3.37517C59.709 3.85084 59.8622 4.44808 59.8983 5.16687L60.1767 10.711L58.48 10.7962L58.2119 5.45634C58.1801 4.82456 57.9908 4.33913 57.6438 4.00004C57.2966 3.65717 56.8355 3.50017 56.2605 3.52904C55.8671 3.54879 55.5214 3.65148 55.2235 3.83711C54.9294 4.02254 54.7017 4.28429 54.5404 4.62235C54.3827 4.95643 54.3155 5.35425 54.3387 5.81579Z" fill="white"/>
<path d="M67.4401 11.6009C66.7448 11.4874 66.1531 11.2086 65.6652 10.7645C65.1817 10.3171 64.8387 9.73733 64.6364 9.025C64.4384 8.30955 64.4153 7.48639 64.5671 6.55551C64.7189 5.62463 65.004 4.85364 65.4222 4.24254C65.8442 3.63205 66.3567 3.19561 66.9599 2.93322C67.563 2.67083 68.2104 2.59604 68.902 2.70885C69.4366 2.79605 69.8519 2.9559 70.1479 3.1884C70.4482 3.41777 70.6689 3.66485 70.8099 3.92964C70.9547 4.19504 71.0629 4.4257 71.1346 4.62161L71.2355 4.63808L71.9315 0.370605L73.6083 0.644091L71.735 12.1287L70.0976 11.8616L70.3162 10.5214L70.176 10.4985C70.0452 10.6652 69.8652 10.8508 69.6361 11.0552C69.4108 11.2602 69.1193 11.4238 68.7617 11.5458C68.404 11.6679 67.9635 11.6862 67.4401 11.6009ZM68.0435 10.2313C68.5257 10.3099 68.9539 10.2493 69.3281 10.0493C69.7067 9.84626 70.0191 9.5307 70.2655 9.10265C70.5156 8.67522 70.69 8.15868 70.7888 7.55305C70.8864 6.9549 70.8858 6.41748 70.787 5.94082C70.6882 5.46415 70.4928 5.07344 70.201 4.76869C69.9091 4.46395 69.5183 4.27163 69.0286 4.19175C68.5239 4.10943 68.0819 4.17168 67.7028 4.37849C67.3236 4.5853 67.0112 4.90086 66.7654 5.32517C66.5234 5.75008 66.3561 6.24667 66.2634 6.81491C66.1695 7.39064 66.171 7.92244 66.268 8.41033C66.365 8.89821 66.5597 9.30417 66.8523 9.62822C67.1492 9.94915 67.5462 10.1502 68.0435 10.2313Z" fill="white"/>
<path d="M81.7704 11.718L83.6186 6.95611L85.2076 7.57285L82.0499 15.7088L80.4927 15.1044L81.0395 13.6955L80.9548 13.6626C80.599 14.0243 80.1584 14.2697 79.6329 14.399C79.1122 14.526 78.5464 14.471 77.9355 14.2339C77.4129 14.031 76.9949 13.7367 76.6814 13.351C76.3728 12.963 76.1921 12.4968 76.1394 11.9521C76.0902 11.4089 76.1958 10.8018 76.4562 10.1309L78.4647 4.95584L80.0485 5.57052L78.114 10.5549C77.8988 11.1093 77.8811 11.6103 78.0609 12.0579C78.2406 12.5056 78.5759 12.8247 79.0668 13.0152C79.3634 13.1303 79.687 13.1706 80.0377 13.136C80.3919 13.1028 80.7243 12.9738 81.035 12.7491C81.3493 12.5256 81.5944 12.182 81.7704 11.718Z" fill="white"/>
<path d="M94.6353 15.4695L93.1898 14.873C93.2412 14.6722 93.2556 14.4592 93.2329 14.2337C93.2134 14.0103 93.1351 13.7876 92.998 13.5657C92.8608 13.3437 92.6436 13.1382 92.3464 12.9491C91.9406 12.6909 91.5439 12.5664 91.1563 12.5757C90.7708 12.5819 90.4875 12.7271 90.3066 13.0116C90.15 13.2576 90.115 13.5137 90.2016 13.7798C90.2882 14.0459 90.5039 14.3561 90.8488 14.7102L91.8477 15.7229C92.4255 16.3105 92.777 16.8731 92.9019 17.4105C93.0269 17.948 92.9236 18.4772 92.5922 18.9981C92.3116 19.4391 91.9336 19.7509 91.4584 19.9333C90.9883 20.1147 90.4644 20.1584 89.8865 20.0646C89.3119 19.9729 88.7273 19.7379 88.1329 19.3597C87.3084 18.835 86.7475 18.2312 86.4503 17.5482C86.1551 16.8621 86.1557 16.1554 86.4523 15.4282L87.9719 16.0988C87.8284 16.5148 87.8319 16.9009 87.9824 17.257C88.135 17.61 88.427 17.9238 88.8584 18.1983C89.3282 18.4972 89.7657 18.6386 90.171 18.6226C90.5783 18.6034 90.8724 18.4516 91.0534 18.1672C91.1998 17.9371 91.2365 17.6888 91.1636 17.4224C91.0939 17.1581 90.9086 16.8741 90.6079 16.5705L89.5354 15.5043C88.948 14.9105 88.5984 14.3379 88.4868 13.7865C88.3784 13.2371 88.491 12.7004 88.8244 12.1763C89.101 11.7416 89.4644 11.4386 89.9147 11.2672C90.365 11.0957 90.8622 11.0552 91.4063 11.1455C91.9525 11.2326 92.5021 11.4521 93.0549 11.8038C93.8507 12.3102 94.3673 12.8813 94.6047 13.5172C94.8441 14.1499 94.8543 14.8007 94.6353 15.4695Z" fill="white"/>
<path d="M102.418 19.2062L101.515 20.2282L97.9424 17.0719L98.8453 16.05L102.418 19.2062ZM101.188 15.3295L102.461 16.4543L96.9948 22.6412C96.7766 22.8882 96.6493 23.1067 96.6127 23.2968C96.5787 23.4841 96.5998 23.6519 96.6761 23.8001C96.7577 23.948 96.868 24.0834 97.0071 24.2063C97.1093 24.2966 97.205 24.3685 97.2942 24.422C97.3834 24.4755 97.453 24.5169 97.5031 24.546L96.8039 25.8008C96.705 25.764 96.5749 25.6996 96.4135 25.6076C96.2497 25.5185 96.0643 25.385 95.8574 25.2073C95.5174 24.917 95.2579 24.5815 95.0787 24.2008C94.8995 23.8201 94.8358 23.4202 94.8877 23.001C94.9396 22.5819 95.1398 22.175 95.4884 21.7804L101.188 15.3295Z" fill="white"/>
<path d="M99.124 28.2848L105.768 22.6264L106.833 23.8765L105.777 24.7754L105.836 24.8446C106.297 24.6612 106.76 24.6351 107.225 24.7665C107.696 24.8982 108.097 25.1587 108.428 25.5481C108.497 25.6288 108.575 25.7264 108.663 25.8409C108.753 25.9583 108.82 26.0524 108.866 26.1232L107.629 27.1768C107.599 27.1126 107.536 27.0068 107.44 26.8594C107.348 26.7096 107.245 26.5683 107.132 26.4357C106.871 26.13 106.574 25.9127 106.241 25.7839C105.912 25.6555 105.576 25.6191 105.23 25.6746C104.887 25.7278 104.571 25.8771 104.283 26.1227L100.225 29.5782L99.124 28.2848Z" fill="white"/>
<path d="M101.903 37.15C101.775 36.931 101.676 36.7211 101.607 36.5203C101.534 36.3214 101.492 36.1663 101.479 36.0551L102.887 35.7045C102.972 36.0146 103.081 36.2714 103.213 36.4748C103.346 36.6782 103.532 36.817 103.773 36.891C104.016 36.9682 104.34 36.9713 104.746 36.9002L105.353 36.7887L111.367 29.5648L112.286 31.1336L107.559 36.464L107.605 36.5424L114.566 35.0263L115.488 36.6L105.135 38.4966C104.659 38.5825 104.22 38.5938 103.818 38.5305C103.413 38.4691 103.052 38.325 102.735 38.0981C102.418 37.8713 102.141 37.5553 101.903 37.15Z" fill="white"/>
<path fill-rule="evenodd" clip-rule="evenodd" d="M66.8445 78.8932L58.3334 87.4044C57.8111 87.9267 56.9643 87.9267 56.442 87.4044L47.9308 78.8932C47.4086 78.371 47.4086 77.5242 47.9308 77.0019C48.4531 76.4796 49.2999 76.4796 49.8222 77.0019L56.0503 83.2299V43.6619H58.7251L58.7251 83.2299L64.9532 77.0019C65.4754 76.4796 66.3223 76.4796 66.8445 77.0019C67.3668 77.5242 67.3668 78.3709 66.8445 78.8932Z" fill="white"/>
</svg>
